<svg id="a684e1c6-71e2-413d-b570-2a7a579de6f7" data-name="Layer 1" xmlns="http://www.w3.org/2000/svg" width="1029.56255" height="548.69495" viewBox="0 0 1029.56255 548.69495"><path d="M133.37467,722.76736l.21351-1.12612c.04736-.24754,4.90753-24.90966,23.12635-39.22042,18.21964-14.3114,43.33085-13.19135,43.58186-13.17828l1.145.05909-.21358,1.12564c-.04737.24754-4.90763,24.90918-23.12636,39.22042-18.21964,14.3114-43.33084,13.19135-43.58186,13.17828ZM157.95,683.994c-15.40414,12.09937-20.95072,31.88327-22.13763,36.85812,5.11571.02181,25.6644-.68921,41.0536-12.77757,15.38743-12.08706,20.94624-31.88051,22.13762-36.85812C193.88493,671.19461,173.33832,671.90627,157.95,683.994Z" transform="translate(-85.21873 -175.65252)" fill="#f1f1f1"/><path d="M165.19537,689.48163c-8.34609,21.49794-30.31721,33.0224-30.31721,33.0224s-8.43942-23.33063-.09333-44.82857S165.102,644.65305,165.102,644.65305,173.54146,667.98369,165.19537,689.48163Z" transform="translate(-85.21873 -175.65252)" fill="#f1f1f1"/><path d="M1084.55991,722.826c-.251.01307-25.36223,1.13312-43.58186-13.17828-18.21874-14.31124-23.079-38.97288-23.12636-39.22042l-.21359-1.12564,1.145-.05909c.251-.01307,25.36223-1.13312,43.58186,13.17828,18.21882,14.31076,23.079,38.97288,23.12636,39.22042l.2135,1.12612Zm-64.484-51.60955c1.19139,4.97761,6.75019,24.77106,22.13763,36.85812,15.38919,12.08836,35.93789,12.79938,41.05359,12.77757-1.1869-4.97485-6.73348-24.75875-22.13762-36.85812C1045.74117,671.90627,1025.19457,671.19461,1020.076,671.21642Z" transform="translate(-85.21873 -175.65252)" fill="#f1f1f1"/><path d="M1053.88412,689.48163c8.34609,21.49794,30.31722,33.0224,30.31722,33.0224s8.43942-23.33063.09333-44.82857-30.31722-33.02241-30.31722-33.02241S1045.538,667.98369,1053.88412,689.48163Z" transform="translate(-85.21873 -175.65252)" fill="#f1f1f1"/><path d="M675.31479,717.62706l-14.5923-6.1443-10.01026-73.15138H517.40762L506.55725,711.1839l-13.05512,6.52746a3.10016,3.10016,0,0,0,1.38657,5.873H674.11213A3.1,3.1,0,0,0,675.31479,717.62706Z" transform="translate(-85.21873 -175.65252)" fill="#e6e6e6"/><path d="M912.20621,648.06385H257.377a12.97344,12.97344,0,0,1-12.9443-12.97332V542.751h680.7178v92.33952A12.97356,12.97356,0,0,1,912.20621,648.06385Z" transform="translate(-85.21873 -175.65252)" fill="#ccc"/><path d="M925.835,586.39288h-682V191.29161a15.6572,15.6572,0,0,1,15.63964-15.63909H910.1952A15.65735,15.65735,0,0,1,925.835,191.29161Z" transform="translate(-85.21873 -175.65252)" fill="#3f3d56"/><path d="M885.10186,557.71639H284.56818a12.07023,12.07023,0,0,1-12.057-12.05667v-329.274a12.07087,12.07087,0,0,1,12.057-12.05741H885.10186a12.07088,12.07088,0,0,1,12.057,12.05741v329.274A12.07024,12.07024,0,0,1,885.10186,557.71639Z" transform="translate(-85.21873 -175.65252)" fill="#fff"/><path d="M1113.255,724.34746l-1026.44821,0a1.56682,1.56682,0,0,1-1.53909-1.13363,1.52912,1.52912,0,0,1,1.47725-1.91893l1026.385,0a1.61535,1.61535,0,0,1,1.61617,1.19368A1.52819,1.52819,0,0,1,1113.255,724.34746Z" transform="translate(-85.21873 -175.65252)" fill="#ccc"/><rect x="219.58182" y="153.2027" width="98.80647" height="9.27916" fill="#e5e5e5"/><rect x="219.58182" y="175.70578" width="98.80647" height="9.27916" fill="#e5e5e5"/><rect x="219.58182" y="198.70578" width="98.80647" height="9.27916" fill="#e5e5e5"/><rect x="219.58182" y="221.70578" width="98.80647" height="9.27916" fill="#e5e5e5"/>
<rect x="242.98506" y="250.93227" width="52" height="8.05267" fill="#00b0ff"/>
<rect x="471.19198" y="210.75367" width="0.94479" height="2.83436" fill="#e5e5e5"/>
<path d="M557.35549,449.63117h-.94478V443.592h.94478Zm0-12.07807h-.94478v-6.03916h.94478Zm0-12.07831h-.94478v-6.03893h.94478Zm0-12.07808h-.94478v-6.03916h.94478Zm0-12.07808h-.94478v-6.03916h.94478Z" transform="translate(-85.21873 -175.65252)" fill="#e5e5e5"/>
<rect x="471.19198" y="280.01781" width="0.94479" height="2.83436" fill="#e5e5e5"/>
<rect x="574.64601" y="210.75367" width="0.94479" height="2.83436" fill="#e5e5e5"/>
<path d="M660.80952,449.63117h-.94479V443.592h.94479Zm0-12.07807h-.94479v-6.03916h.94479Zm0-12.07831h-.94479v-6.03893h.94479Zm0-12.07808h-.94479v-6.03916h.94479Zm0-12.07808h-.94479v-6.03916h.94479Z" transform="translate(-85.21873 -175.65252)" fill="#e5e5e5"/><rect x="574.64601" y="280.01781" width="0.94479" height="2.83436" fill="#e5e5e5"/><rect x="626.83111" y="155.3061" width="0.94479" height="2.83436" fill="#e5e5e5"/><path d="M712.99462,449.86668h-.94478V444.063h.94478Zm0-11.6073h-.94478V432.4555h.94478Zm0-11.60753h-.94478V420.8482h.94478Zm0-11.6073h-.94478V409.2409h.94478Zm0-11.6073h-.94478v-5.80388h.94478Zm0-11.60753h-.94478v-5.80365h.94478Zm0-11.60731h-.94478v-5.80365h.94478Zm0-11.6073h-.94478v-5.80365h.94478Zm0-11.60753h-.94478v-5.80365h.94478Zm0-11.6073h-.94478v-5.80365h.94478Z" transform="translate(-85.21873 -175.65252)" fill="#e5e5e5"/><rect x="626.83111" y="280.01781" width="0.94479" height="2.83436" fill="#e5e5e5"/><rect x="678.49585" y="132.63125" width="0.94479" height="2.83436" fill="#e5e5e5"/><path d="M764.65936,449.88836h-.94479v-5.7822h.94479Zm0-11.56417h-.94479V432.542h.94479Zm0-11.56416h-.94479v-5.7822h.94479Zm0-11.56417h-.94479v-5.7822h.94479Zm0-11.56417h-.94479v-5.7822h.94479Zm0-11.56416h-.94479v-5.7822h.94479Zm0-11.56417h-.94479v-5.7822h.94479Zm0-11.56417h-.94479V363.157h.94479Zm0-11.56416h-.94479v-5.7822h.94479Zm0-11.56417h-.94479v-5.7822h.94479Zm0-11.56417h-.94479v-5.7822h.94479Zm0-11.56417h-.94479v-5.78219h.94479Z" transform="translate(-85.21873 -175.65252)" fill="#e5e5e5"/><rect x="678.49585" y="280.01781" width="0.94479" height="2.83436" fill="#e5e5e5"/><rect x="523.15519" y="172.78464" width="0.94479" height="2.83436" fill="#e5e5e5"/><path d="M609.3187,450.17576h-.94478V444.6812h.94478Zm0-10.98936h-.94478v-5.49456h.94478Zm0-10.98936h-.94478v-5.49456h.94478Zm0-10.98936h-.94478v-5.49456h.94478Zm0-10.98936h-.94478v-5.49456h.94478Zm0-10.98936h-.94478v-5.49457h.94478Zm0-10.98936h-.94478V378.745h.94478Zm0-10.98936h-.94478v-5.49457h.94478Zm0-10.98936h-.94478v-5.49457h.94478Z" transform="translate(-85.21873 -175.65252)" fill="#e5e5e5"/><rect x="523.15519" y="280.01781" width="0.94479" height="2.83436" fill="#e5e5e5"/><path d="M817.06089,459.82073H504.27977a.97891.97891,0,0,1-.97886-.97886v-149.916a.97886.97886,0,0,1,1.95772,0V457.863H817.06089a.97886.97886,0,1,1,0,1.95772Z" transform="translate(-85.21873 -175.65252)" fill="#3f3d56"/><polygon points="575.548 212.069 523.544 173.118 472.251 211.537 471.077 209.97 523.544 170.672 575.3 209.438 626.731 153.155 626.938 153.071 678.817 132.168 679.549 133.985 627.876 154.804 575.548 212.069" fill="#3f3d56"/>
<circle cx="471.66442" cy="210.75355" r="5.87317" fill="#00b0ff"/>
<circle cx="523.54411" cy="172.57792" r="5.87317" fill="#00b0ff"/>
<circle cx="575.42381" cy="210.75355" r="5.87317" fill="#00b0ff"/>
<circle cx="627.3035" cy="153.97954" r="5.87317" fill="#00b0ff"/>
<circle cx="679.1832" cy="132.44458" r="5.87317" fill="#00b0ff"/>
<rect x="347.26975" y="28.67555" width="2" height="353.38818" fill="#e5e5e5"/>
</svg>