<svg id="e59edb86-a3bc-4694-8aac-31e565ca5cfc" data-name="Layer 1" xmlns="http://www.w3.org/2000/svg" width="676" height="676" viewBox="0 0 676 676">
<title>male_avatar</title>


<circle cx="337.30608" cy="281.0788" r="131.77014" fill="#d0cde1"/>
<path d="M547.83337,493.96531s16.47127,78.23852,16.47127,86.47415,78.23852,45.296,78.23852,45.296L712.546,613.382,737.253,539.26129s-41.17817-61.76725-41.17817-86.47415Z" transform="translate(-262 -112)" fill="#d0cde1"/>
<path d="M910.78,583.1,909.66,585.68A338.559,338.559,0,0,1,541.35,782.93q-3.045-.54-6.08-1.12a334.98111,334.98111,0,0,1-61.14-18.03q-4.815-1.935-9.56-4.01c-2.16-.94-4.32-1.91-6.46-2.91a337.59273,337.59273,0,0,1-55.25-32.28l-15.62-45.31,8.78-6.69995,18.06-13.79,19.27-14.71,5.01-3.83,75.61-57.72,5.58-4.26,39.3-30,.01-.01s42.5,69.25,104.27,48.66,60.42-79.63,60.42-79.63Z" transform="translate(-262 -112)" fill="#2f2e41"/>
<path d="M485.03538,286.916s41.83653-90.64581,122.02321-69.72755,125.50958,52.29566,128.996,83.67306-1.74319,78.44348-1.74319,78.44348-8.716-64.498-64.498-50.55247-142.94147,3.48638-142.94147,3.48638L512.9264,457.74849s-15.6887-22.66145-33.12058-8.71594S429.25335,314.807,485.03538,286.916Z" transform="translate(-262 -112)" fill="#2f2e41"/>
<path d="M474.13,763.78q-4.815-1.935-9.56-4.01c-2.16-.94-4.32-1.91-6.46-2.91a338.835,338.835,0,0,1-87.59-58.7c9.19-12.52,16.72-18.89,16.72-18.89h61.77l9.26,31.14Z" transform="translate(-262 -112)" fill="#2f2e41"/>
<path d="M856.67,576.32l52.99,9.36A337.94434,337.94434,0,0,1,852.9,674.25Z" transform="translate(-262 -112)" fill="#2f2e41"/>
</svg>